<?xml version="1.0" encoding="UTF-8"?>
<svg version="1.1" xmlns="http://www.w3.org/2000/svg" width="2220" height="264">
<path d="M0 0 C33.845625 -0.061875 33.845625 -0.061875 68.375 -0.125 C75.48853027 -0.14320801 82.60206055 -0.16141602 89.93115234 -0.18017578 C98.64575195 -0.18920898 98.64575195 -0.18920898 102.73086548 -0.19088745 C105.57212474 -0.19274394 108.41330858 -0.2002117 111.25454712 -0.21115112 C114.88821854 -0.22495446 118.5217816 -0.22896665 122.15547681 -0.22614455 C124.10547324 -0.22701025 126.05545793 -0.23769281 128.00542259 -0.2488575 C140.91769422 -0.21851776 152.41215524 1.56629595 162.25 10.5625 C170.42807282 19.28798946 173.14503714 29.03826783 173.16113281 40.6706543 C173.16609772 41.53314285 173.17106262 42.39563141 173.17617798 43.28425598 C173.19075355 46.13091844 173.19759465 48.97752514 173.203125 51.82421875 C173.20888114 53.81093852 173.21463881 55.79765829 173.22039795 57.78437805 C173.23089547 61.94959775 173.23674601 66.11479823 173.24023438 70.2800293 C173.2457102 75.59817156 173.26972411 80.91605666 173.29820633 86.23411846 C173.31689985 90.3392662 173.32204192 94.44435288 173.32357025 98.54953957 C173.32658319 100.50900487 173.33456544 102.46846946 173.34775543 104.42789268 C173.44345068 119.73918428 172.59642939 131.91398651 161.8125 143.6875 C152.91572485 152.14040133 141.5833711 154.33249817 129.71655273 154.22705078 C128.39784935 154.22748886 128.39784935 154.22748886 127.05250549 154.22793579 C124.17943049 154.22655506 121.30662281 154.21105372 118.43359375 154.1953125 C116.42863608 154.19157789 114.42367658 154.18873304 112.41871643 154.18673706 C107.16623816 154.17913587 101.91387219 154.15951784 96.66143799 154.1373291 C90.34622264 154.11317822 84.03096954 154.10407295 77.71572113 154.09242249 C68.14373622 154.0730912 58.57199723 154.03474409 49 154 C49 173.14 49 192.28 49 212 C32.83 212 16.66 212 0 212 C0 142.04 0 72.08 0 0 Z M49 43 C49 65.44 49 87.88 49 111 C65.149375 111.0928125 65.149375 111.0928125 81.625 111.1875 C85.01604004 111.21481201 88.40708008 111.24212402 91.90087891 111.27026367 C94.59276981 111.27902665 97.2846647 111.28667103 99.9765625 111.29296875 C100.67075287 111.30080887 101.36494324 111.30864899 102.08016968 111.31672668 C104.14041192 111.33881817 106.19991025 111.34171375 108.26025391 111.34057617 C109.41941315 111.34723801 110.57857239 111.35389984 111.77285767 111.36076355 C115.45715488 110.94889447 117.84201996 109.91483614 121 108 C124.91917833 102.74546689 124.4349683 96.96716348 124.3984375 90.6875 C124.40130768 89.60041748 124.40417786 88.51333496 124.40713501 87.39331055 C124.4091718 85.10041786 124.40366896 82.80750765 124.39111328 80.51464844 C124.37505489 77.01197325 124.39097583 73.51045195 124.41015625 70.0078125 C124.40817375 67.77603913 124.40432994 65.54426647 124.3984375 63.3125 C124.40451019 62.26860107 124.41058289 61.22470215 124.4168396 60.14916992 C124.34736124 52.6222304 124.34736124 52.6222304 121 46 C116.60895181 43.33749497 113.36262048 42.63009988 108.26025391 42.65942383 C107.60532644 42.65906222 106.95039898 42.65870062 106.27562523 42.65832806 C104.17561622 42.66055028 102.07642678 42.68331559 99.9765625 42.70703125 C98.68516357 42.71005249 97.39376465 42.71307373 96.06323242 42.71618652 C91.2504067 42.73185383 86.43769512 42.77373774 81.625 42.8125 C70.85875 42.874375 60.0925 42.93625 49 43 Z " fill="#F5385C" transform="translate(1306,52)"/>
<path d="M0 0 C0.99918457 -0.00335861 1.99836914 -0.00671722 3.02783203 -0.01017761 C6.32358044 -0.01965851 9.61927787 -0.02162939 12.91503906 -0.02270508 C15.21421326 -0.02591998 17.51338726 -0.02928423 19.81256104 -0.03279114 C24.63090489 -0.03877549 29.44923082 -0.04063178 34.26757812 -0.04003906 C40.42525797 -0.03993756 46.58282222 -0.0535809 52.7404747 -0.07081127 C57.48985313 -0.08196056 62.23920388 -0.08395736 66.98859406 -0.08342934 C69.25785978 -0.08460537 71.52712631 -0.08900593 73.79637909 -0.0967617 C76.97891704 -0.10661934 80.16120759 -0.10366063 83.34375 -0.09765625 C84.27084778 -0.10327576 85.19794556 -0.10889526 86.15313721 -0.11468506 C99.14613851 -0.05276478 109.1746483 2.90139447 118.81347656 11.78979492 C125.62002797 19.36239732 128.06915889 27.12462555 128.16894531 37.05932617 C128.17701706 37.82900726 128.18508881 38.59868835 128.19340515 39.39169312 C128.20721422 41.02062755 128.21795054 42.64959054 128.22583008 44.27856445 C128.23731195 45.92904255 128.25770337 47.57948463 128.28735352 49.22973633 C128.54766952 63.73471878 126.5984179 73.94509252 116.34082031 84.83276367 C107.55149962 93.1050655 96.54341782 94.31036436 84.96606445 94.25878906 C84.09697449 94.25893509 83.22788452 94.25908112 82.3324585 94.25923157 C79.48105305 94.25853903 76.62971424 94.25077767 73.77832031 94.24291992 C71.79292334 94.2410534 69.8075259 94.2396306 67.8221283 94.2386322 C62.61240351 94.23482548 57.40270688 94.22501102 52.19299316 94.21392822 C46.87052796 94.20367436 41.54805818 94.19912608 36.22558594 94.1940918 C25.79393299 94.18338703 15.36230087 94.16633286 4.93066406 94.14526367 C5.06358036 95.91528768 5.20442118 97.68471788 5.34863281 99.45385742 C5.42621826 100.43926514 5.50380371 101.42467285 5.58374023 102.43994141 C5.99988638 105.68506132 6.77623945 107.67166504 8.93066406 110.14526367 C11.88951532 111.94276191 14.1095697 112.39995657 17.54974365 112.42373657 C18.93370583 112.4404818 18.93370583 112.4404818 20.34562683 112.45756531 C21.35047623 112.45972549 22.35532562 112.46188568 23.390625 112.46411133 C24.98620995 112.47917976 24.98620995 112.47917976 26.61402893 112.49455261 C30.1310268 112.52545056 33.64794831 112.54243833 37.16503906 112.55932617 C39.60313578 112.57803248 42.041226 112.59760548 44.47930908 112.61801147 C50.89736091 112.66939534 57.31543374 112.7089877 63.73358154 112.74615479 C70.28240176 112.78615516 76.83113413 112.8372656 83.37988281 112.88745117 C96.23008774 112.98428462 109.08032873 113.06763911 121.93066406 113.14526367 C121.93066406 126.67526367 121.93066406 140.20526367 121.93066406 154.14526367 C104.92724373 154.21313534 87.92394004 154.26833517 70.9204216 154.30070019 C63.02437215 154.31613111 55.12841321 154.33714788 47.23242188 154.37158203 C40.34563929 154.4016006 33.45892229 154.42086607 26.57207608 154.42752916 C22.92973024 154.43142045 19.28757195 154.44048548 15.64528656 154.46245384 C11.56682724 154.4868506 7.48868842 154.48722573 3.41015625 154.48583984 C1.62342499 154.50201859 1.62342499 154.50201859 -0.19940186 154.51852417 C-12.96286659 154.47182606 -24.90975393 152.09426974 -34.32714844 142.95385742 C-44.81798919 130.89519729 -44.67250255 117.42143288 -44.60058594 102.27026367 C-44.60328643 100.25349745 -44.60717347 98.23673251 -44.61218262 96.2199707 C-44.61805143 92.01069641 -44.60959954 87.80176362 -44.59082031 83.5925293 C-44.56803255 78.22641813 -44.58116974 72.86110751 -44.60511017 67.49502563 C-44.61963918 63.33571459 -44.61492974 59.17658995 -44.604599 55.01727295 C-44.6019513 53.03993635 -44.60513167 51.06258221 -44.61451721 49.08526611 C-44.6651978 35.41069565 -44.34219989 23.06966731 -35.05371094 12.11401367 C-25.1491593 2.28745063 -13.47664662 -0.00653065 0 0 Z M5.93066406 42.14526367 C4.74384681 45.70571544 4.83376574 48.58334704 4.86816406 52.33276367 C4.8771875 53.60506836 4.88621094 54.87737305 4.89550781 56.18823242 C4.90710937 57.16405273 4.91871094 58.13987305 4.93066406 59.14526367 C13.71036931 59.21482661 22.48997944 59.26810677 31.26990032 59.30070019 C35.3469435 59.31634477 39.42379789 59.33756075 43.50073242 59.37158203 C47.43647424 59.40421891 51.37203466 59.42212578 55.30790138 59.4298954 C56.80819364 59.43543117 58.30847616 59.44624129 59.80869102 59.46245384 C61.91296078 59.48428639 64.0164845 59.48722827 66.12084961 59.48583984 C67.31775925 59.49250168 68.51466888 59.49916351 69.74784851 59.50602722 C73.54315265 59.07583974 76.21094 57.86498773 78.93066406 55.14526367 C79.08233554 53.19103501 79.15246402 51.23016639 79.18066406 49.27026367 C79.20644531 48.2003418 79.23222656 47.13041992 79.25878906 46.02807617 C79.17321297 43.16276543 79.17321297 43.16276543 77.60253906 41.32495117 C74.18982964 38.91691789 71.01367661 39.00965269 66.97802734 38.98413086 C65.75310577 38.97452332 64.5281842 38.96491577 63.2661438 38.95501709 C61.92775662 38.95016912 60.58936727 38.94589029 59.25097656 38.94213867 C57.87718708 38.9363845 56.50339761 38.9306268 55.12960815 38.92486572 C52.24965034 38.9143656 49.36972035 38.90851644 46.48974609 38.9050293 C42.8054265 38.89954577 39.12147669 38.87551708 35.43727303 38.84705734 C32.59934423 38.82840341 29.76150405 38.82322392 26.92351913 38.82169342 C25.56558078 38.81867269 24.20764377 38.8106637 22.84976578 38.79750824 C20.94728192 38.78039173 19.04464504 38.7841809 17.14208984 38.78881836 C16.06081818 38.78517273 14.97954651 38.7815271 13.86550903 38.777771 C10.49231295 39.20015271 8.61931869 40.08610148 5.93066406 42.14526367 Z " fill="#F5385C" transform="translate(2092.0693359375,51.854736328125)"/>
<path d="M0 0 C0.99918457 -0.00335861 1.99836914 -0.00671722 3.02783203 -0.01017761 C6.32358044 -0.01965851 9.61927787 -0.02162939 12.91503906 -0.02270508 C15.21421326 -0.02591998 17.51338726 -0.02928423 19.81256104 -0.03279114 C24.63090489 -0.03877549 29.44923082 -0.04063178 34.26757812 -0.04003906 C40.42525797 -0.03993756 46.58282222 -0.0535809 52.7404747 -0.07081127 C57.48985313 -0.08196056 62.23920388 -0.08395736 66.98859406 -0.08342934 C69.25785978 -0.08460537 71.52712631 -0.08900593 73.79637909 -0.0967617 C76.97891704 -0.10661934 80.16120759 -0.10366063 83.34375 -0.09765625 C84.27084778 -0.10327576 85.19794556 -0.10889526 86.15313721 -0.11468506 C99.14613851 -0.05276478 109.1746483 2.90139447 118.81347656 11.78979492 C125.62002797 19.36239732 128.06915889 27.12462555 128.16894531 37.05932617 C128.17701706 37.82900726 128.18508881 38.59868835 128.19340515 39.39169312 C128.20721422 41.02062755 128.21795054 42.64959054 128.22583008 44.27856445 C128.23731195 45.92904255 128.25770337 47.57948463 128.28735352 49.22973633 C128.54766952 63.73471878 126.5984179 73.94509252 116.34082031 84.83276367 C107.55149962 93.1050655 96.54341782 94.31036436 84.96606445 94.25878906 C84.09697449 94.25893509 83.22788452 94.25908112 82.3324585 94.25923157 C79.48105305 94.25853903 76.62971424 94.25077767 73.77832031 94.24291992 C71.79292334 94.2410534 69.8075259 94.2396306 67.8221283 94.2386322 C62.61240351 94.23482548 57.40270688 94.22501102 52.19299316 94.21392822 C46.87052796 94.20367436 41.54805818 94.19912608 36.22558594 94.1940918 C25.79393299 94.18338703 15.36230087 94.16633286 4.93066406 94.14526367 C5.06358036 95.91528768 5.20442118 97.68471788 5.34863281 99.45385742 C5.42621826 100.43926514 5.50380371 101.42467285 5.58374023 102.43994141 C5.99988638 105.68506132 6.77623945 107.67166504 8.93066406 110.14526367 C11.88951532 111.94276191 14.1095697 112.39995657 17.54974365 112.42373657 C18.93370583 112.4404818 18.93370583 112.4404818 20.34562683 112.45756531 C21.35047623 112.45972549 22.35532562 112.46188568 23.390625 112.46411133 C24.98620995 112.47917976 24.98620995 112.47917976 26.61402893 112.49455261 C30.1310268 112.52545056 33.64794831 112.54243833 37.16503906 112.55932617 C39.60313578 112.57803248 42.041226 112.59760548 44.47930908 112.61801147 C50.89736091 112.66939534 57.31543374 112.7089877 63.73358154 112.74615479 C70.28240176 112.78615516 76.83113413 112.8372656 83.37988281 112.88745117 C96.23008774 112.98428462 109.08032873 113.06763911 121.93066406 113.14526367 C121.93066406 126.67526367 121.93066406 140.20526367 121.93066406 154.14526367 C104.92724373 154.21313534 87.92394004 154.26833517 70.9204216 154.30070019 C63.02437215 154.31613111 55.12841321 154.33714788 47.23242188 154.37158203 C40.34563929 154.4016006 33.45892229 154.42086607 26.57207608 154.42752916 C22.92973024 154.43142045 19.28757195 154.44048548 15.64528656 154.46245384 C11.56682724 154.4868506 7.48868842 154.48722573 3.41015625 154.48583984 C1.62342499 154.50201859 1.62342499 154.50201859 -0.19940186 154.51852417 C-12.96286659 154.47182606 -24.90975393 152.09426974 -34.32714844 142.95385742 C-44.81798919 130.89519729 -44.67250255 117.42143288 -44.60058594 102.27026367 C-44.60328643 100.25349745 -44.60717347 98.23673251 -44.61218262 96.2199707 C-44.61805143 92.01069641 -44.60959954 87.80176362 -44.59082031 83.5925293 C-44.56803255 78.22641813 -44.58116974 72.86110751 -44.60511017 67.49502563 C-44.61963918 63.33571459 -44.61492974 59.17658995 -44.604599 55.01727295 C-44.6019513 53.03993635 -44.60513167 51.06258221 -44.61451721 49.08526611 C-44.6651978 35.41069565 -44.34219989 23.06966731 -35.05371094 12.11401367 C-25.1491593 2.28745063 -13.47664662 -0.00653065 0 0 Z M5.93066406 42.14526367 C4.74384681 45.70571544 4.83376574 48.58334704 4.86816406 52.33276367 C4.8771875 53.60506836 4.88621094 54.87737305 4.89550781 56.18823242 C4.90710937 57.16405273 4.91871094 58.13987305 4.93066406 59.14526367 C13.71036931 59.21482661 22.48997944 59.26810677 31.26990032 59.30070019 C35.3469435 59.31634477 39.42379789 59.33756075 43.50073242 59.37158203 C47.43647424 59.40421891 51.37203466 59.42212578 55.30790138 59.4298954 C56.80819364 59.43543117 58.30847616 59.44624129 59.80869102 59.46245384 C61.91296078 59.48428639 64.0164845 59.48722827 66.12084961 59.48583984 C67.31775925 59.49250168 68.51466888 59.49916351 69.74784851 59.50602722 C73.54315265 59.07583974 76.21094 57.86498773 78.93066406 55.14526367 C79.08233554 53.19103501 79.15246402 51.23016639 79.18066406 49.27026367 C79.20644531 48.2003418 79.23222656 47.13041992 79.25878906 46.02807617 C79.17321297 43.16276543 79.17321297 43.16276543 77.60253906 41.32495117 C74.18982964 38.91691789 71.01367661 39.00965269 66.97802734 38.98413086 C65.75310577 38.97452332 64.5281842 38.96491577 63.2661438 38.95501709 C61.92775662 38.95016912 60.58936727 38.94589029 59.25097656 38.94213867 C57.87718708 38.9363845 56.50339761 38.9306268 55.12960815 38.92486572 C52.24965034 38.9143656 49.36972035 38.90851644 46.48974609 38.9050293 C42.8054265 38.89954577 39.12147669 38.87551708 35.43727303 38.84705734 C32.59934423 38.82840341 29.76150405 38.82322392 26.92351913 38.82169342 C25.56558078 38.81867269 24.20764377 38.8106637 22.84976578 38.79750824 C20.94728192 38.78039173 19.04464504 38.7841809 17.14208984 38.78881836 C16.06081818 38.78517273 14.97954651 38.7815271 13.86550903 38.777771 C10.49231295 39.20015271 8.61931869 40.08610148 5.93066406 42.14526367 Z " fill="#F5385C" transform="translate(1749.0693359375,51.854736328125)"/>
<path d="M0 0 C0.99918457 -0.00335861 1.99836914 -0.00671722 3.02783203 -0.01017761 C6.32358044 -0.01965851 9.61927787 -0.02162939 12.91503906 -0.02270508 C15.21421326 -0.02591998 17.51338726 -0.02928423 19.81256104 -0.03279114 C24.63090489 -0.03877549 29.44923082 -0.04063178 34.26757812 -0.04003906 C40.42525797 -0.03993756 46.58282222 -0.0535809 52.7404747 -0.07081127 C57.48985313 -0.08196056 62.23920388 -0.08395736 66.98859406 -0.08342934 C69.25785978 -0.08460537 71.52712631 -0.08900593 73.79637909 -0.0967617 C76.97891704 -0.10661934 80.16120759 -0.10366063 83.34375 -0.09765625 C84.27084778 -0.10327576 85.19794556 -0.10889526 86.15313721 -0.11468506 C99.14613851 -0.05276478 109.1746483 2.90139447 118.81347656 11.78979492 C125.62002797 19.36239732 128.06915889 27.12462555 128.16894531 37.05932617 C128.17701706 37.82900726 128.18508881 38.59868835 128.19340515 39.39169312 C128.20721422 41.02062755 128.21795054 42.64959054 128.22583008 44.27856445 C128.23731195 45.92904255 128.25770337 47.57948463 128.28735352 49.22973633 C128.54766952 63.73471878 126.5984179 73.94509252 116.34082031 84.83276367 C107.55149962 93.1050655 96.54341782 94.31036436 84.96606445 94.25878906 C84.09697449 94.25893509 83.22788452 94.25908112 82.3324585 94.25923157 C79.48105305 94.25853903 76.62971424 94.25077767 73.77832031 94.24291992 C71.79292334 94.2410534 69.8075259 94.2396306 67.8221283 94.2386322 C62.61240351 94.23482548 57.40270688 94.22501102 52.19299316 94.21392822 C46.87052796 94.20367436 41.54805818 94.19912608 36.22558594 94.1940918 C25.79393299 94.18338703 15.36230087 94.16633286 4.93066406 94.14526367 C5.06358036 95.91528768 5.20442118 97.68471788 5.34863281 99.45385742 C5.42621826 100.43926514 5.50380371 101.42467285 5.58374023 102.43994141 C5.99988638 105.68506132 6.77623945 107.67166504 8.93066406 110.14526367 C11.88951532 111.94276191 14.1095697 112.39995657 17.54974365 112.42373657 C18.93370583 112.4404818 18.93370583 112.4404818 20.34562683 112.45756531 C21.35047623 112.45972549 22.35532562 112.46188568 23.390625 112.46411133 C24.98620995 112.47917976 24.98620995 112.47917976 26.61402893 112.49455261 C30.1310268 112.52545056 33.64794831 112.54243833 37.16503906 112.55932617 C39.60313578 112.57803248 42.041226 112.59760548 44.47930908 112.61801147 C50.89736091 112.66939534 57.31543374 112.7089877 63.73358154 112.74615479 C70.28240176 112.78615516 76.83113413 112.8372656 83.37988281 112.88745117 C96.23008774 112.98428462 109.08032873 113.06763911 121.93066406 113.14526367 C121.93066406 126.67526367 121.93066406 140.20526367 121.93066406 154.14526367 C104.92724373 154.21313534 87.92394004 154.26833517 70.9204216 154.30070019 C63.02437215 154.31613111 55.12841321 154.33714788 47.23242188 154.37158203 C40.34563929 154.4016006 33.45892229 154.42086607 26.57207608 154.42752916 C22.92973024 154.43142045 19.28757195 154.44048548 15.64528656 154.46245384 C11.56682724 154.4868506 7.48868842 154.48722573 3.41015625 154.48583984 C1.62342499 154.50201859 1.62342499 154.50201859 -0.19940186 154.51852417 C-12.96286659 154.47182606 -24.90975393 152.09426974 -34.32714844 142.95385742 C-44.81798919 130.89519729 -44.67250255 117.42143288 -44.60058594 102.27026367 C-44.60328643 100.25349745 -44.60717347 98.23673251 -44.61218262 96.2199707 C-44.61805143 92.01069641 -44.60959954 87.80176362 -44.59082031 83.5925293 C-44.56803255 78.22641813 -44.58116974 72.86110751 -44.60511017 67.49502563 C-44.61963918 63.33571459 -44.61492974 59.17658995 -44.604599 55.01727295 C-44.6019513 53.03993635 -44.60513167 51.06258221 -44.61451721 49.08526611 C-44.6651978 35.41069565 -44.34219989 23.06966731 -35.05371094 12.11401367 C-25.1491593 2.28745063 -13.47664662 -0.00653065 0 0 Z M5.93066406 42.14526367 C4.74384681 45.70571544 4.83376574 48.58334704 4.86816406 52.33276367 C4.8771875 53.60506836 4.88621094 54.87737305 4.89550781 56.18823242 C4.90710938 57.16405273 4.91871094 58.13987305 4.93066406 59.14526367 C13.71036931 59.21482661 22.48997944 59.26810677 31.26990032 59.30070019 C35.3469435 59.31634477 39.42379789 59.33756075 43.50073242 59.37158203 C47.43647424 59.40421891 51.37203466 59.42212578 55.30790138 59.4298954 C56.80819364 59.43543117 58.30847616 59.44624129 59.80869102 59.46245384 C61.91296078 59.48428639 64.0164845 59.48722827 66.12084961 59.48583984 C67.31775925 59.49250168 68.51466888 59.49916351 69.74784851 59.50602722 C73.54315265 59.07583974 76.21094 57.86498773 78.93066406 55.14526367 C79.08233554 53.19103501 79.15246402 51.23016639 79.18066406 49.27026367 C79.20644531 48.2003418 79.23222656 47.13041992 79.25878906 46.02807617 C79.17321297 43.16276543 79.17321297 43.16276543 77.60253906 41.32495117 C74.18982964 38.91691789 71.01367661 39.00965269 66.97802734 38.98413086 C65.75310577 38.97452332 64.5281842 38.96491577 63.2661438 38.95501709 C61.92775662 38.95016912 60.58936727 38.94589029 59.25097656 38.94213867 C57.87718708 38.9363845 56.50339761 38.9306268 55.12960815 38.92486572 C52.24965034 38.9143656 49.36972035 38.90851644 46.48974609 38.9050293 C42.8054265 38.89954577 39.12147669 38.87551708 35.43727303 38.84705734 C32.59934423 38.82840341 29.76150405 38.82322392 26.92351913 38.82169342 C25.56558078 38.81867269 24.20764377 38.8106637 22.84976578 38.79750824 C20.94728192 38.78039173 19.04464504 38.7841809 17.14208984 38.78881836 C16.06081818 38.78517273 14.97954651 38.7815271 13.86550903 38.777771 C10.49231295 39.20015271 8.61931869 40.08610148 5.93066406 42.14526367 Z " fill="#F5385C" transform="translate(956.0693359375,51.854736328125)"/>
<path d="M0 0 C0.99918457 -0.00335861 1.99836914 -0.00671722 3.02783203 -0.01017761 C6.32358044 -0.01965851 9.61927787 -0.02162939 12.91503906 -0.02270508 C15.21421326 -0.02591998 17.51338726 -0.02928423 19.81256104 -0.03279114 C24.63090489 -0.03877549 29.44923082 -0.04063178 34.26757812 -0.04003906 C40.42525797 -0.03993756 46.58282222 -0.0535809 52.7404747 -0.07081127 C57.48985313 -0.08196056 62.23920388 -0.08395736 66.98859406 -0.08342934 C69.25785978 -0.08460537 71.52712631 -0.08900593 73.79637909 -0.0967617 C76.97891704 -0.10661934 80.16120759 -0.10366063 83.34375 -0.09765625 C84.27084778 -0.10327576 85.19794556 -0.10889526 86.15313721 -0.11468506 C99.14613851 -0.05276478 109.1746483 2.90139447 118.81347656 11.78979492 C125.62002797 19.36239732 128.06915889 27.12462555 128.16894531 37.05932617 C128.17701706 37.82900726 128.18508881 38.59868835 128.19340515 39.39169312 C128.20721422 41.02062755 128.21795054 42.64959054 128.22583008 44.27856445 C128.23731195 45.92904255 128.25770337 47.57948463 128.28735352 49.22973633 C128.54766952 63.73471878 126.5984179 73.94509252 116.34082031 84.83276367 C107.55149962 93.1050655 96.54341782 94.31036436 84.96606445 94.25878906 C84.09697449 94.25893509 83.22788452 94.25908112 82.3324585 94.25923157 C79.48105305 94.25853903 76.62971424 94.25077767 73.77832031 94.24291992 C71.79292334 94.2410534 69.8075259 94.2396306 67.8221283 94.2386322 C62.61240351 94.23482548 57.40270688 94.22501102 52.19299316 94.21392822 C46.87052796 94.20367436 41.54805818 94.19912608 36.22558594 94.1940918 C25.79393299 94.18338703 15.36230087 94.16633286 4.93066406 94.14526367 C5.06358036 95.91528768 5.20442118 97.68471788 5.34863281 99.45385742 C5.42621826 100.43926514 5.50380371 101.42467285 5.58374023 102.43994141 C5.99988638 105.68506132 6.77623945 107.67166504 8.93066406 110.14526367 C11.88951532 111.94276191 14.1095697 112.39995657 17.54974365 112.42373657 C18.93370583 112.4404818 18.93370583 112.4404818 20.34562683 112.45756531 C21.35047623 112.45972549 22.35532562 112.46188568 23.390625 112.46411133 C24.98620995 112.47917976 24.98620995 112.47917976 26.61402893 112.49455261 C30.1310268 112.52545056 33.64794831 112.54243833 37.16503906 112.55932617 C39.60313578 112.57803248 42.041226 112.59760548 44.47930908 112.61801147 C50.89736091 112.66939534 57.31543374 112.7089877 63.73358154 112.74615479 C70.28240176 112.78615516 76.83113413 112.8372656 83.37988281 112.88745117 C96.23008774 112.98428462 109.08032873 113.06763911 121.93066406 113.14526367 C121.93066406 126.67526367 121.93066406 140.20526367 121.93066406 154.14526367 C104.92724373 154.21313534 87.92394004 154.26833517 70.9204216 154.30070019 C63.02437215 154.31613111 55.12841321 154.33714788 47.23242188 154.37158203 C40.34563929 154.4016006 33.45892229 154.42086607 26.57207608 154.42752916 C22.92973024 154.43142045 19.28757195 154.44048548 15.64528656 154.46245384 C11.56682724 154.4868506 7.48868842 154.48722573 3.41015625 154.48583984 C1.62342499 154.50201859 1.62342499 154.50201859 -0.19940186 154.51852417 C-12.96286659 154.47182606 -24.90975393 152.09426974 -34.32714844 142.95385742 C-44.81798919 130.89519729 -44.67250255 117.42143288 -44.60058594 102.27026367 C-44.60328643 100.25349745 -44.60717347 98.23673251 -44.61218262 96.2199707 C-44.61805143 92.01069641 -44.60959954 87.80176362 -44.59082031 83.5925293 C-44.56803255 78.22641813 -44.58116974 72.86110751 -44.60511017 67.49502563 C-44.61963918 63.33571459 -44.61492974 59.17658995 -44.604599 55.01727295 C-44.6019513 53.03993635 -44.60513167 51.06258221 -44.61451721 49.08526611 C-44.6651978 35.41069565 -44.34219989 23.06966731 -35.05371094 12.11401367 C-25.1491593 2.28745063 -13.47664662 -0.00653065 0 0 Z M5.93066406 42.14526367 C4.74384681 45.70571544 4.83376574 48.58334704 4.86816406 52.33276367 C4.8771875 53.60506836 4.88621094 54.87737305 4.89550781 56.18823242 C4.90710938 57.16405273 4.91871094 58.13987305 4.93066406 59.14526367 C13.71036931 59.21482661 22.48997944 59.26810677 31.26990032 59.30070019 C35.3469435 59.31634477 39.42379789 59.33756075 43.50073242 59.37158203 C47.43647424 59.40421891 51.37203466 59.42212578 55.30790138 59.4298954 C56.80819364 59.43543117 58.30847616 59.44624129 59.80869102 59.46245384 C61.91296078 59.48428639 64.0164845 59.48722827 66.12084961 59.48583984 C67.31775925 59.49250168 68.51466888 59.49916351 69.74784851 59.50602722 C73.54315265 59.07583974 76.21094 57.86498773 78.93066406 55.14526367 C79.08233554 53.19103501 79.15246402 51.23016639 79.18066406 49.27026367 C79.20644531 48.2003418 79.23222656 47.13041992 79.25878906 46.02807617 C79.17321297 43.16276543 79.17321297 43.16276543 77.60253906 41.32495117 C74.18982964 38.91691789 71.01367661 39.00965269 66.97802734 38.98413086 C65.75310577 38.97452332 64.5281842 38.96491577 63.2661438 38.95501709 C61.92775662 38.95016912 60.58936727 38.94589029 59.25097656 38.94213867 C57.87718708 38.9363845 56.50339761 38.9306268 55.12960815 38.92486572 C52.24965034 38.9143656 49.36972035 38.90851644 46.48974609 38.9050293 C42.8054265 38.89954577 39.12147669 38.87551708 35.43727303 38.84705734 C32.59934423 38.82840341 29.76150405 38.82322392 26.92351913 38.82169342 C25.56558078 38.81867269 24.20764377 38.8106637 22.84976578 38.79750824 C20.94728192 38.78039173 19.04464504 38.7841809 17.14208984 38.78881836 C16.06081818 38.78517273 14.97954651 38.7815271 13.86550903 38.777771 C10.49231295 39.20015271 8.61931869 40.08610148 5.93066406 42.14526367 Z " fill="#F5385C" transform="translate(238.0693359375,51.854736328125)"/>
<path d="M0 0 C16.17 0 32.34 0 49 0 C49 17.16 49 34.32 49 52 C55.16429687 51.97679687 61.32859375 51.95359375 67.6796875 51.9296875 C71.59896258 51.91946118 75.51822107 51.90983271 79.4375 51.90234375 C85.65010012 51.89041621 91.86264095 51.87634816 98.07519531 51.84912109 C103.08726779 51.82729422 108.09927662 51.81541069 113.11139297 51.81024551 C115.01782355 51.80656737 116.92425087 51.79938513 118.83065414 51.78853989 C134.13427449 51.70498996 148.41155109 51.63502399 160.3125 62.6875 C169.76827689 72.85007234 171.31510989 84.69195791 171.22705078 98.03735352 C171.22734283 99.20909622 171.22763489 100.38083893 171.22793579 101.58808899 C171.22654996 105.43510518 171.21102376 109.28192417 171.1953125 113.12890625 C171.19157972 115.80647611 171.18863553 118.48403526 171.18673706 121.16160583 C171.18054233 127.47246505 171.16415895 133.78325426 171.14403808 140.09408277 C171.12161627 147.2839876 171.11066992 154.47389593 171.10064721 161.66382706 C171.07979074 176.44259195 171.04313985 191.22128183 171 206 C154.83 206 138.66 206 122 206 C121.95101563 198.79027344 121.90203125 191.58054688 121.8515625 184.15234375 C121.81617173 179.58136628 121.78020914 175.01040762 121.7421875 170.43945312 C121.68190958 163.18630687 121.6237345 155.9331869 121.578125 148.67993164 C121.5412159 142.83137294 121.49484033 136.98295851 121.44193649 131.13452339 C121.4234225 128.90467424 121.40830352 126.6747942 121.39665604 124.44489861 C121.37974254 121.31850325 121.35069466 118.19243613 121.31884766 115.06616211 C121.31668747 114.14690445 121.31452728 113.22764679 121.31230164 112.28053284 C121.24625295 107.19558818 121.11420972 102.67420662 119 98 C114.91502225 95.86731591 110.99692182 95.73514137 106.44384766 95.68115234 C105.14519775 95.66109131 103.84654785 95.64103027 102.50854492 95.62036133 C101.14371961 95.60863209 99.77889211 95.59715528 98.4140625 95.5859375 C96.53593872 95.55947144 96.53593872 95.55947144 94.61987305 95.5324707 C89.95504459 95.46953545 85.29000338 95.42325787 80.625 95.375 C70.18875 95.25125 59.7525 95.1275 49 95 C49 131.63 49 168.26 49 206 C32.83 206 16.66 206 0 206 C0 138.02 0 70.04 0 0 Z " fill="#F5385C" transform="translate(1507,0)"/>
<path d="M0 0 C1.8167926 -0.00065712 1.8167926 -0.00065712 3.67028809 -0.00132751 C6.95062326 0.00038866 10.23056055 0.01530029 13.51081753 0.03639436 C16.95407274 0.05531184 20.39733804 0.05692334 23.84063721 0.06047058 C30.3426828 0.06974724 36.84457476 0.09430078 43.34655309 0.12451905 C50.75658396 0.15820054 58.16662266 0.17458341 65.57671118 0.18960536 C80.80286771 0.22085502 96.02882502 0.27581129 111.25488281 0.34057617 C111.25488281 13.54057617 111.25488281 26.74057617 111.25488281 40.34057617 C108.12536133 40.35515869 104.99583984 40.36974121 101.77148438 40.38476562 C91.44168382 40.43506001 81.11203484 40.50164591 70.78238297 40.57629108 C64.51834647 40.62105464 58.25437592 40.66029766 51.99023438 40.68701172 C45.94712669 40.71298481 39.90427197 40.75334489 33.8613205 40.80376244 C31.55363863 40.82047172 29.24591297 40.83196062 26.93817902 40.83819008 C23.71046814 40.84778687 20.48341042 40.87579375 17.25585938 40.90820312 C16.29776367 40.90676804 15.33966797 40.90533295 14.35253906 40.90385437 C13.47196838 40.91639252 12.59139771 40.92893066 11.68414307 40.94184875 C10.53927618 40.9487622 10.53927618 40.9487622 9.37128067 40.95581532 C6.66831785 41.44721361 5.2657972 42.49994222 3.25488281 44.34057617 C2.62491079 46.47180217 2.62491079 46.47180217 2.75488281 48.77807617 C2.74457031 49.53991211 2.73425781 50.30174805 2.72363281 51.08666992 C3.47970585 54.29442096 4.63543382 55.33880119 7.25488281 57.34057617 C10.07595242 57.71804875 12.50420922 57.85479268 15.32128906 57.80712891 C16.13165115 57.80943512 16.94201324 57.81174133 17.77693176 57.81411743 C19.53552085 57.81674584 21.29414158 57.81030612 23.05267334 57.79586601 C25.84584215 57.77394659 28.63792947 57.77770907 31.43115234 57.78834534 C38.3746213 57.81000228 45.31785195 57.79278299 52.2612915 57.7668457 C58.11997616 57.7453341 63.9779654 57.74366591 69.8366394 57.76976204 C72.57099744 57.774077 75.30411154 57.74957142 78.03833008 57.72422791 C91.66307289 57.71353268 102.00855924 60.10325789 112.12597656 69.87963867 C120.75104583 79.84990223 121.60953454 91.43492423 121.57055664 104.06665039 C121.56739983 106.20405282 121.59090226 108.34006311 121.61621094 110.47729492 C121.67796961 123.71260214 119.16373409 134.09700089 110.06738281 144.02807617 C99.95594135 153.63504224 87.48593036 154.64768582 74.20776367 154.56762695 C72.2892157 154.56806503 72.2892157 154.56806503 70.33190918 154.56851196 C66.85109079 154.56908202 63.37041234 154.55738445 59.88962626 154.54336405 C56.24214447 154.53079835 52.59465891 154.52968161 48.94715881 154.52731323 C42.05193902 154.52111553 35.15678321 154.50472804 28.26159149 154.48461425 C20.40664404 154.46220181 12.55169342 154.45124842 4.69672191 154.44122338 C-11.45060107 154.42036015 -27.59783599 154.38370548 -43.74511719 154.34057617 C-43.74511719 141.14057617 -43.74511719 127.94057617 -43.74511719 114.34057617 C-40.40354492 114.33123047 -37.06197266 114.32188477 -33.61914062 114.31225586 C-22.59083353 114.27852102 -11.56271426 114.22299163 -0.53455734 114.15667343 C6.15324513 114.1171283 12.84090372 114.08448084 19.52880859 114.06958008 C25.98043879 114.05446001 32.43170334 114.02009684 38.88317108 113.97226715 C41.34715348 113.95740537 43.81118807 113.94953243 46.27521515 113.94869232 C49.7209849 113.94633542 53.1657336 113.91935722 56.61132812 113.88647461 C57.634879 113.89150497 58.65842987 113.89653534 59.71299744 113.90171814 C65.17168979 113.89513085 65.17168979 113.89513085 69.89129639 111.43365479 C72.20101833 107.88827657 71.65200487 105.51035778 71.25488281 101.34057617 C69.53261785 98.0920764 69.53261785 98.0920764 66.25488281 97.34057617 C63.61545937 97.2410593 61.00166848 97.19689164 58.36206055 97.19873047 C57.55838547 97.19525604 56.75471039 97.19178162 55.92668152 97.1882019 C54.18009063 97.18084834 52.43349042 97.17550083 50.68688774 97.17191124 C47.91561736 97.16473573 45.14452302 97.14905868 42.37330627 97.13056946 C34.49328096 97.07816778 26.6133499 97.0301807 18.7331543 97.01464844 C13.91194069 97.00452299 9.09116733 96.97507882 4.27012825 96.93332863 C2.4391012 96.92107371 0.6080118 96.91588723 -1.22305489 96.91812706 C-15.21966768 96.93102889 -24.96765579 95.86548806 -35.48339844 85.76245117 C-45.37165359 75.17399143 -47.27511829 64.23187025 -47.19116211 50.14624023 C-47.18265676 47.97567571 -47.21149331 45.80775711 -47.24316406 43.63745117 C-47.30648198 31.36724307 -45.23884806 20.99872992 -37.00292969 11.53198242 C-26.76020682 1.59051611 -13.73013705 -0.13265653 0 0 Z " fill="#F5385C" transform="translate(1156.7451171875,51.659423828125)"/>
<path d="M0 0 C1.8167926 -0.00065712 1.8167926 -0.00065712 3.67028809 -0.00132751 C6.95062326 0.00038866 10.23056055 0.01530029 13.51081753 0.03639436 C16.95407274 0.05531184 20.39733804 0.05692334 23.84063721 0.06047058 C30.3426828 0.06974724 36.84457476 0.09430078 43.34655309 0.12451905 C50.75658396 0.15820054 58.16662266 0.17458341 65.57671118 0.18960536 C80.80286771 0.22085502 96.02882502 0.27581129 111.25488281 0.34057617 C111.25488281 13.54057617 111.25488281 26.74057617 111.25488281 40.34057617 C108.12536133 40.35515869 104.99583984 40.36974121 101.77148438 40.38476562 C91.44168382 40.43506001 81.11203484 40.50164591 70.78238297 40.57629108 C64.51834647 40.62105464 58.25437592 40.66029766 51.99023438 40.68701172 C45.94712669 40.71298481 39.90427197 40.75334489 33.8613205 40.80376244 C31.55363863 40.82047172 29.24591297 40.83196062 26.93817902 40.83819008 C23.71046814 40.84778687 20.48341042 40.87579375 17.25585938 40.90820312 C16.29776367 40.90676804 15.33966797 40.90533295 14.35253906 40.90385437 C13.47196838 40.91639252 12.59139771 40.92893066 11.68414307 40.94184875 C10.53927618 40.9487622 10.53927618 40.9487622 9.37128067 40.95581532 C6.66831785 41.44721361 5.2657972 42.49994222 3.25488281 44.34057617 C2.62491079 46.47180217 2.62491079 46.47180217 2.75488281 48.77807617 C2.74457031 49.53991211 2.73425781 50.30174805 2.72363281 51.08666992 C3.47970585 54.29442096 4.63543382 55.33880119 7.25488281 57.34057617 C10.07595242 57.71804875 12.50420922 57.85479268 15.32128906 57.80712891 C16.13165115 57.80943512 16.94201324 57.81174133 17.77693176 57.81411743 C19.53552085 57.81674584 21.29414158 57.81030612 23.05267334 57.79586601 C25.84584215 57.77394659 28.63792947 57.77770907 31.43115234 57.78834534 C38.3746213 57.81000228 45.31785195 57.79278299 52.2612915 57.7668457 C58.11997616 57.7453341 63.9779654 57.74366591 69.8366394 57.76976204 C72.57099744 57.774077 75.30411154 57.74957142 78.03833008 57.72422791 C91.66307289 57.71353268 102.00855924 60.10325789 112.12597656 69.87963867 C120.75104583 79.84990223 121.60953454 91.43492423 121.57055664 104.06665039 C121.56739983 106.20405282 121.59090226 108.34006311 121.61621094 110.47729492 C121.67796961 123.71260214 119.16373409 134.09700089 110.06738281 144.02807617 C99.95594135 153.63504224 87.48593036 154.64768582 74.20776367 154.56762695 C72.2892157 154.56806503 72.2892157 154.56806503 70.33190918 154.56851196 C66.85109079 154.56908202 63.37041234 154.55738445 59.88962626 154.54336405 C56.24214447 154.53079835 52.59465891 154.52968161 48.94715881 154.52731323 C42.05193902 154.52111553 35.15678321 154.50472804 28.26159149 154.48461425 C20.40664404 154.46220181 12.55169342 154.45124842 4.69672191 154.44122338 C-11.45060107 154.42036015 -27.59783599 154.38370548 -43.74511719 154.34057617 C-43.74511719 141.14057617 -43.74511719 127.94057617 -43.74511719 114.34057617 C-40.40354492 114.33123047 -37.06197266 114.32188477 -33.61914062 114.31225586 C-22.59083353 114.27852102 -11.56271426 114.22299163 -0.53455734 114.15667343 C6.15324513 114.1171283 12.84090372 114.08448084 19.52880859 114.06958008 C25.98043879 114.05446001 32.43170334 114.02009684 38.88317108 113.97226715 C41.34715348 113.95740537 43.81118807 113.94953243 46.27521515 113.94869232 C49.7209849 113.94633542 53.1657336 113.91935722 56.61132812 113.88647461 C57.634879 113.89150497 58.65842987 113.89653534 59.71299744 113.90171814 C65.17168979 113.89513085 65.17168979 113.89513085 69.89129639 111.43365479 C72.20101833 107.88827657 71.65200487 105.51035778 71.25488281 101.34057617 C69.53261785 98.0920764 69.53261785 98.0920764 66.25488281 97.34057617 C63.61545937 97.2410593 61.00166848 97.19689164 58.36206055 97.19873047 C57.55838547 97.19525604 56.75471039 97.19178162 55.92668152 97.1882019 C54.18009063 97.18084834 52.43349042 97.17550083 50.68688774 97.17191124 C47.91561736 97.16473573 45.14452302 97.14905868 42.37330627 97.13056946 C34.49328096 97.07816778 26.6133499 97.0301807 18.7331543 97.01464844 C13.91194069 97.00452299 9.09116733 96.97507882 4.27012825 96.93332863 C2.4391012 96.92107371 0.6080118 96.91588723 -1.22305489 96.91812706 C-15.21966768 96.93102889 -24.96765579 95.86548806 -35.48339844 85.76245117 C-45.37165359 75.17399143 -47.27511829 64.23187025 -47.19116211 50.14624023 C-47.18265676 47.97567571 -47.21149331 45.80775711 -47.24316406 43.63745117 C-47.30648198 31.36724307 -45.23884806 20.99872992 -37.00292969 11.53198242 C-26.76020682 1.59051611 -13.73013705 -0.13265653 0 0 Z " fill="#F5385C" transform="translate(46.7451171875,51.659423828125)"/>
<path d="M0 0 C16.17 0 32.34 0 49 0 C49.02578125 7.44949219 49.0515625 14.89898437 49.078125 22.57421875 C49.10328875 27.29105017 49.12961808 32.00781718 49.16015625 36.72460938 C49.20852616 44.21281183 49.25255761 51.70086522 49.27099609 59.18920898 C49.28612993 65.22588868 49.32051781 71.26217866 49.36830902 77.29868507 C49.38315652 79.60274686 49.39104294 81.90686427 49.39188385 84.21097374 C49.39424504 87.43623882 49.42125773 90.66041947 49.45410156 93.88549805 C49.4490712 94.83999847 49.44404083 95.7944989 49.43885803 96.77792358 C49.50548114 101.00122097 49.63156042 103.38753846 51.84661865 107.06965637 C55.37884693 110.23603206 58.38022636 110.12292737 62.94018555 110.11352539 C64.17828979 110.11340454 65.41639404 110.11328369 66.6920166 110.11315918 C67.99376831 110.10804321 69.29552002 110.10292725 70.63671875 110.09765625 C71.8328479 110.09664917 73.02897705 110.09564209 74.26135254 110.09460449 C78.73674475 110.08936581 83.21212332 110.07540458 87.6875 110.0625 C97.690625 110.041875 107.69375 110.02125 118 110 C118.33 73.7 118.66 37.4 119 0 C135.17 0 151.34 0 168 0 C168 50.82 168 101.64 168 154 C135.144375 154.061875 135.144375 154.061875 101.625 154.125 C94.72029785 154.14320801 87.8155957 154.16141602 80.70166016 154.18017578 C72.2409668 154.18920898 72.2409668 154.18920898 68.27450562 154.19088745 C65.5165376 154.19394963 62.75875562 154.20020919 60.00082397 154.21115112 C56.47319902 154.22495946 52.94568569 154.22896575 49.41803622 154.22614455 C47.52565781 154.2270098 45.63329148 154.23768974 43.74094582 154.2488575 C29.90672783 154.21539289 19.44959451 151.88344961 9.1171875 142.35546875 C3.28379206 135.86554726 -0.12898844 128.4724885 -0.12025452 119.77349854 C-0.12162918 118.71623062 -0.12300385 117.65896271 -0.12442017 116.56965637 C-0.12082489 115.41519516 -0.11722961 114.26073395 -0.11352539 113.07128906 C-0.11367142 111.85150864 -0.11381744 110.63172821 -0.1139679 109.37498474 C-0.1133908 106.03439478 -0.10837708 102.6938667 -0.10139394 99.3532877 C-0.09514071 95.86058802 -0.09455504 92.36788751 -0.09336853 88.87518311 C-0.09026103 82.26314728 -0.08205545 75.651128 -0.07201904 69.03909945 C-0.06083988 61.51073626 -0.05534291 53.98237228 -0.05032361 46.45400286 C-0.03987237 30.96932403 -0.02153409 15.48466799 0 0 Z " fill="#F5385C" transform="translate(571,52)"/>
<path d="M0 0 C1.80084801 -0.00021904 1.80084801 -0.00021904 3.63807678 -0.0004425 C6.91655976 0.00013328 10.19499961 0.00513602 13.47347403 0.01213145 C16.90476893 0.01839816 20.33606476 0.01897141 23.7673645 0.02015686 C30.25891961 0.02326041 36.7504578 0.03146061 43.24200547 0.04150635 C50.6349883 0.05269784 58.02797195 0.05818558 65.42096114 0.06320179 C80.6232624 0.07364406 95.8255417 0.09197738 111.02783203 0.11352539 C111.02783203 14.30352539 111.02783203 28.49352539 111.02783203 43.11352539 C100.41240234 43.16959961 100.41240234 43.16959961 89.58251953 43.22680664 C85.0981202 43.25708396 80.61376069 43.28823033 76.12939453 43.32250977 C69.01222739 43.37683202 61.89513901 43.42794228 54.77783203 43.45996094 C49.03945004 43.48597754 43.3013325 43.52636882 37.56311417 43.57671165 C35.37431249 43.59339139 33.18546507 43.60489876 30.99660873 43.6111393 C27.92974907 43.6207681 24.86356767 43.64881368 21.796875 43.68115234 C20.44064781 43.67899971 20.44064781 43.67899971 19.05702209 43.67680359 C14.01373315 43.75196978 10.32259398 44.1706077 6.02783203 47.11352539 C3.88308678 50.06424451 3.76780751 52.65767752 3.73730469 56.24584961 C3.72454498 57.26726044 3.71178528 58.28867126 3.69863892 59.34103394 C3.69641327 60.43900299 3.69418762 61.53697205 3.69189453 62.66821289 C3.68523773 63.8025174 3.67858093 64.9368219 3.67172241 66.10549927 C3.66159944 68.50447976 3.65690528 70.9034884 3.65722656 73.30249023 C3.65285669 76.96784004 3.61654038 80.63198261 3.57861328 84.29711914 C3.5727444 86.62914628 3.56877549 88.96117913 3.56689453 91.29321289 C3.5525235 92.38713348 3.53815247 93.48105408 3.52334595 94.60812378 C3.55984694 100.70450664 3.79369418 104.55567376 8.02783203 109.11352539 C10.75284611 110.02186342 12.37950502 110.24710345 15.1849823 110.27174377 C16.0305217 110.28153259 16.8760611 110.29132141 17.7472229 110.30140686 C18.67151093 110.30716232 19.59579895 110.31291779 20.5480957 110.31884766 C22.01178841 110.33369705 22.01178841 110.33369705 23.50505066 110.34884644 C26.73527589 110.3804721 29.96551584 110.40522317 33.19580078 110.42993164 C35.43354172 110.45050024 37.67127877 110.47149669 39.90901184 110.49290466 C45.80265146 110.54813502 51.6963262 110.59754009 57.59002686 110.64575195 C63.60253022 110.6959599 69.6149825 110.75164966 75.62744141 110.80688477 C87.42752962 110.91447816 99.22766116 111.01541409 111.02783203 111.11352539 C111.02783203 125.30352539 111.02783203 139.49352539 111.02783203 154.11352539 C95.1978678 154.18141584 79.36802016 154.23660771 63.53795242 154.26896191 C56.18670668 154.28438815 48.83555825 154.30539579 41.484375 154.33984375 C35.07223177 154.36987684 28.66015907 154.38913118 22.24794745 154.39579087 C18.85710648 154.39967976 15.46646715 154.40872892 12.07569122 154.43071556 C8.27739207 154.45262632 4.47950496 154.45548655 0.68115234 154.45410156 C-0.42584518 154.46488739 -1.53284271 154.47567322 -2.67338562 154.48678589 C-14.1087833 154.44193346 -23.98414423 152.43902451 -32.97216797 145.11352539 C-33.61025391 144.59918945 -34.24833984 144.08485352 -34.90576172 143.55493164 C-40.87921553 138.19809242 -44.28862577 130.90932798 -45.97216797 123.11352539 C-46.08221138 120.19764312 -46.13970621 117.3049825 -46.14916992 114.38867188 C-46.15574112 113.5084285 -46.16231232 112.62818512 -46.16908264 111.7212677 C-46.18878568 108.80905058 -46.2004739 105.89688506 -46.21044922 102.98461914 C-46.21452475 101.98702135 -46.21860027 100.98942356 -46.2227993 99.96159554 C-46.243651 94.67752414 -46.25795453 89.39347862 -46.26733398 84.109375 C-46.27837405 78.67128209 -46.31274892 73.2336011 -46.35250568 67.79565334 C-46.37874991 63.59781677 -46.38703292 59.40007699 -46.39061546 55.2021656 C-46.39546416 53.19885551 -46.40702873 51.19554925 -46.42565346 49.19231987 C-46.55225307 34.66851241 -45.94581155 22.70052617 -35.53466797 11.48852539 C-34.68904297 10.70477539 -33.84341797 9.92102539 -32.97216797 9.11352539 C-32.25029297 8.43290039 -31.52841797 7.75227539 -30.78466797 7.05102539 C-21.24182365 0.47706597 -11.22196943 -0.03574976 0 0 Z " fill="#F5385C" transform="translate(437.97216796875,51.886474609375)"/>
<path d="M0 0 C1.39141708 -0.00021904 1.39141708 -0.00021904 2.8109436 -0.0004425 C5.85714103 0.00025054 8.90327623 0.00801434 11.94946289 0.01586914 C14.06938137 0.01773548 16.18930029 0.01915837 18.30921936 0.02015686 C23.87404584 0.02396501 29.43884599 0.03378072 35.00366211 0.04486084 C41.68845323 0.05691562 48.37325317 0.06148531 55.05805206 0.06731415 C65.20025937 0.07699342 75.34240897 0.0961619 85.48461914 0.11352539 C85.48461914 14.30352539 85.48461914 28.49352539 85.48461914 43.11352539 C80.35672852 43.13930664 75.22883789 43.16508789 69.94555664 43.19165039 C66.69160078 43.21682518 63.4377373 43.24316275 60.18383789 43.27368164 C55.02221355 43.3219829 49.86080309 43.36604005 44.69897461 43.38452148 C40.53604198 43.39969636 36.37366988 43.43415604 32.21098709 43.48183441 C30.62507634 43.49663976 29.03908556 43.50456592 27.45310593 43.50540924 C25.22651586 43.50778335 23.00146933 43.53489488 20.77514648 43.56762695 C18.87652359 43.58095062 18.87652359 43.58095062 16.93954468 43.59454346 C12.86713382 44.206281 10.67432346 45.55514511 7.48461914 48.11352539 C6.33376452 50.41523463 6.34800068 51.74114311 6.32640076 54.30227661 C6.31171753 55.61900864 6.31171753 55.61900864 6.29673767 56.96234131 C6.29098221 57.92762756 6.28522675 58.89291382 6.27929688 59.88745117 C6.26939728 60.90211456 6.25949768 61.91677795 6.2492981 62.96218872 C6.21762245 66.32771443 6.1929017 69.69325426 6.16821289 73.05883789 C6.1476486 75.38768895 6.12665227 77.71653623 6.10523987 80.04537964 C6.04996498 86.18398994 6.00057961 92.32263422 5.95239258 98.46130371 C5.89339997 105.82182037 5.82714227 113.18227473 5.76209259 120.54273987 C5.66401495 131.73296376 5.57520543 142.92322704 5.48461914 154.11352539 C-10.68538086 154.11352539 -26.85538086 154.11352539 -43.51538086 154.11352539 C-43.62852435 138.02277968 -43.72051315 121.9323768 -43.77444172 105.84134293 C-43.80015427 98.3689366 -43.83517039 90.89679615 -43.89257812 83.42456055 C-43.94262759 76.90694067 -43.97472231 70.38951346 -43.98582333 63.87170672 C-43.99230605 60.42482043 -44.00739346 56.97848503 -44.04403114 53.53177643 C-44.08472976 49.67123076 -44.08531657 45.81120957 -44.08300781 41.95043945 C-44.10098419 40.82474045 -44.11896057 39.69904144 -44.13748169 38.53923035 C-44.06530687 27.3216771 -40.43264356 18.13238887 -32.62866211 10.01977539 C-23.07967445 1.40627081 -12.46978277 -0.05194015 0 0 Z " fill="#F5385C" transform="translate(1948.515380859375,51.886474609375)"/>
<path d="M0 0 C1.39141708 -0.00021904 1.39141708 -0.00021904 2.8109436 -0.0004425 C5.85714103 0.00025054 8.90327623 0.00801434 11.94946289 0.01586914 C14.06938137 0.01773548 16.18930029 0.01915837 18.30921936 0.02015686 C23.87404584 0.02396501 29.43884599 0.03378072 35.00366211 0.04486084 C41.68845323 0.05691562 48.37325317 0.06148531 55.05805206 0.06731415 C65.20025937 0.07699342 75.34240897 0.0961619 85.48461914 0.11352539 C85.48461914 14.30352539 85.48461914 28.49352539 85.48461914 43.11352539 C80.35672852 43.13930664 75.22883789 43.16508789 69.94555664 43.19165039 C66.69160078 43.21682518 63.4377373 43.24316275 60.18383789 43.27368164 C55.02221355 43.3219829 49.86080309 43.36604005 44.69897461 43.38452148 C40.53604198 43.39969636 36.37366988 43.43415604 32.21098709 43.48183441 C30.62507634 43.49663976 29.03908556 43.50456592 27.45310593 43.50540924 C25.22651586 43.50778335 23.00146933 43.53489488 20.77514648 43.56762695 C18.87652359 43.58095062 18.87652359 43.58095062 16.93954468 43.59454346 C12.86713382 44.206281 10.67432346 45.55514511 7.48461914 48.11352539 C6.33376452 50.41523463 6.34800068 51.74114311 6.32640076 54.30227661 C6.31171753 55.61900864 6.31171753 55.61900864 6.29673767 56.96234131 C6.29098221 57.92762756 6.28522675 58.89291382 6.27929688 59.88745117 C6.26939728 60.90211456 6.25949768 61.91677795 6.2492981 62.96218872 C6.21762245 66.32771443 6.1929017 69.69325426 6.16821289 73.05883789 C6.1476486 75.38768895 6.12665227 77.71653623 6.10523987 80.04537964 C6.04996498 86.18398994 6.00057961 92.32263422 5.95239258 98.46130371 C5.89339997 105.82182037 5.82714227 113.18227473 5.76209259 120.54273987 C5.66401495 131.73296376 5.57520543 142.92322704 5.48461914 154.11352539 C-10.68538086 154.11352539 -26.85538086 154.11352539 -43.51538086 154.11352539 C-43.62852435 138.02277968 -43.72051315 121.9323768 -43.77444172 105.84134293 C-43.80015427 98.3689366 -43.83517039 90.89679615 -43.89257812 83.42456055 C-43.94262759 76.90694067 -43.97472231 70.38951346 -43.98582333 63.87170672 C-43.99230605 60.42482043 -44.00739346 56.97848503 -44.04403114 53.53177643 C-44.08472976 49.67123076 -44.08531657 45.81120957 -44.08300781 41.95043945 C-44.10098419 40.82474045 -44.11896057 39.69904144 -44.13748169 38.53923035 C-44.06530687 27.3216771 -40.43264356 18.13238887 -32.62866211 10.01977539 C-23.07967445 1.40627081 -12.46978277 -0.05194015 0 0 Z " fill="#F5385C" transform="translate(812.515380859375,51.886474609375)"/>
</svg>
